<?xml version="1.0" encoding="utf-8"?>
<!-- Generator: Adobe Illustrator 23.0.6, SVG Export Plug-In . SVG Version: 6.00 Build 0)  -->
<svg version="1.1" id="Layer_1" xmlns="http://www.w3.org/2000/svg" xmlns:xlink="http://www.w3.org/1999/xlink" x="0px" y="0px"
	 viewBox="0 0 1920 1816" style="enable-background:new 0 0 1920 1816;" xml:space="preserve">
<style type="text/css">
	.st0{fill:url(#SVGID_1_);}
	.st1{opacity:0.54;fill:url(#SVGID_2_);}
	.st2{opacity:0.19;fill:url(#SVGID_3_);}
	.st3{opacity:0.18;fill:url(#SVGID_4_);}
	.st4{display:none;fill:#FFFFFF;}
	.st5{opacity:0.5;fill:#FFFFFF;}
	.st6{opacity:0.22;fill:#FFFFFF;}
	.st7{fill:url(#SVGID_5_);}
	.st8{fill:url(#SVGID_6_);}
</style>
<linearGradient id="SVGID_1_" gradientUnits="userSpaceOnUse" x1="227.8444" y1="1825.4049" x2="1962.8777" y2="90.3716" gradientTransform="matrix(-1 6.991283e-03 -6.991283e-03 -1 2021.863 1963.2833)">
	<stop  offset="0" style="stop-color:#F3410A"/>
	<stop  offset="2.917206e-02" style="stop-color:#F03A1D"/>
	<stop  offset="7.167982e-02" style="stop-color:#EC3231"/>
	<stop  offset="0.1201" style="stop-color:#EA2C3F"/>
	<stop  offset="0.1788" style="stop-color:#E82947"/>
	<stop  offset="0.277" style="stop-color:#E8284A"/>
	<stop  offset="0.5953" style="stop-color:#E8284A"/>
	<stop  offset="0.6461" style="stop-color:#E8284A"/>
	<stop  offset="0.7298" style="stop-color:#E92946"/>
	<stop  offset="0.8087" style="stop-color:#EB2E3B"/>
	<stop  offset="0.8857" style="stop-color:#EE3528"/>
	<stop  offset="0.9611" style="stop-color:#F2400D"/>
	<stop  offset="0.9691" style="stop-color:#F3410A"/>
</linearGradient>
<path class="st0" d="M-0.1,121.8c254.5,83.2,613.3,114.7,1031.6,36.4C1544.7,71,1817.2,13.1,1921,24.3c18.9,21.9,8.6,1789,8.6,1789
	L6,1828.8C8.8,1260.7-2.9,689.8-0.1,121.8z"/>
<linearGradient id="SVGID_2_" gradientUnits="userSpaceOnUse" x1="367.1503" y1="1860.4735" x2="1328.0012" y2="1860.4735" gradientTransform="matrix(-1 6.991283e-03 -6.991283e-03 -1 2021.863 1963.2833)">
	<stop  offset="0" style="stop-color:#FFFFFF"/>
	<stop  offset="1" style="stop-color:#FFFFFF;stop-opacity:0.5"/>
</linearGradient>
<path class="st1" d="M739.4,196.9c0,0,446.1,117.7,811.9-77.1C1740,9,1573-16.8,1573-16.8L680.2,9l65.3,174.9"/>
<linearGradient id="SVGID_3_" gradientUnits="userSpaceOnUse" x1="-868.3824" y1="933.2071" x2="388.1747" y2="933.2071" gradientTransform="matrix(1 5.590477e-03 -5.590477e-03 1 796.526 209.1183)">
	<stop  offset="0" style="stop-color:#FFFFFF"/>
	<stop  offset="9.630630e-02" style="stop-color:#FEF7F8;stop-opacity:0.9518"/>
	<stop  offset="0.2489" style="stop-color:#FCE0E5;stop-opacity:0.8756"/>
	<stop  offset="0.4386" style="stop-color:#F8BBC5;stop-opacity:0.7807"/>
	<stop  offset="0.658" style="stop-color:#F2879A;stop-opacity:0.671"/>
	<stop  offset="0.8995" style="stop-color:#EB4563;stop-opacity:0.5503"/>
	<stop  offset="1" style="stop-color:#E8284A;stop-opacity:0.5"/>
</linearGradient>
<polygon class="st2" points="1178.1,1388.9 -7,1519 -75.7,893 1109.4,763 "/>
<linearGradient id="SVGID_4_" gradientUnits="userSpaceOnUse" x1="1584.2823" y1="-1392.3899" x2="2840.8394" y2="-1392.3899" gradientTransform="matrix(-0.9944 3.507481e-02 6.801914e-02 -0.5056 3642.0569 -253.7024)">
	<stop  offset="0" style="stop-color:#FFFFFF"/>
	<stop  offset="0.1088" style="stop-color:#FEFAFA;stop-opacity:0.9456"/>
	<stop  offset="0.2462" style="stop-color:#FDEAED;stop-opacity:0.8769"/>
	<stop  offset="0.3988" style="stop-color:#FAD0D8;stop-opacity:0.8006"/>
	<stop  offset="0.5626" style="stop-color:#F6ACB9;stop-opacity:0.7187"/>
	<stop  offset="0.7354" style="stop-color:#F17E92;stop-opacity:0.6323"/>
	<stop  offset="0.9128" style="stop-color:#EB4663;stop-opacity:0.5436"/>
	<stop  offset="1" style="stop-color:#E8284A;stop-opacity:0.5"/>
</linearGradient>
<polygon class="st3" points="738.9,426.3 1926,315.7 1955.2,629.4 768.2,740.1 "/>
<path class="st4" d="M886.6,179.9c0,0,437.6,110.1,796.6-72.5c44.5-22.6,21.4-127.9,21.4-127.9l-876,24.4l64,163.8"/>
<image style="display:none;overflow:visible;opacity:0.46;" width="1920" height="1000" xlink:href="89.png"  transform="matrix(-1.1677 8.163780e-03 -8.163780e-03 -1.1677 1958.6831 925.2619)">
</image>
<path class="st5" d="M378.5,187.4c0,0-244.8,95-373.1,18.8c-16.3-10-0.8-109.5-0.8-109.5l361-2.5L378.5,187.4z"/>
<path class="st6" d="M1937.2,1.7c0,0-303.4,249.1-631.7,93.9"/>
<linearGradient id="SVGID_5_" gradientUnits="userSpaceOnUse" x1="-107.9041" y1="1990.9298" x2="-95.3063" y2="1978.332" gradientTransform="matrix(-1 6.991283e-03 -6.991283e-03 -1 2021.863 1963.2833)">
	<stop  offset="0" style="stop-color:#F3410A"/>
	<stop  offset="2.917206e-02" style="stop-color:#F03A1D"/>
	<stop  offset="7.167982e-02" style="stop-color:#EC3231"/>
	<stop  offset="0.1201" style="stop-color:#EA2C3F"/>
	<stop  offset="0.1788" style="stop-color:#E82947"/>
	<stop  offset="0.277" style="stop-color:#E8284A"/>
	<stop  offset="0.5953" style="stop-color:#E8284A"/>
	<stop  offset="0.6461" style="stop-color:#E8284A"/>
	<stop  offset="0.7298" style="stop-color:#E92946"/>
	<stop  offset="0.8087" style="stop-color:#EB2E3B"/>
	<stop  offset="0.8857" style="stop-color:#EE3528"/>
	<stop  offset="0.9611" style="stop-color:#F2400D"/>
	<stop  offset="0.9691" style="stop-color:#F3410A"/>
</linearGradient>
<line class="st7" x1="2101.1" y1="-17.9" x2="2119" y2="-27"/>
<linearGradient id="SVGID_6_" gradientUnits="userSpaceOnUse" x1="709.9212" y1="1675.6045" x2="709.9212" y2="1675.6045" gradientTransform="matrix(-1 6.991283e-03 -6.991283e-03 -1 2021.863 1963.2833)">
	<stop  offset="0" style="stop-color:#FFFFFF"/>
	<stop  offset="1" style="stop-color:#FFFFFF;stop-opacity:0.5"/>
</linearGradient>
<path class="st8" d="M1300.2,292.7"/>
</svg>
